<svg version="1.1" xmlns="http://www.w3.org/2000/svg" xmlns:xlink="http://www.w3.org/1999/xlink" x="0px" y="0px"
	 width="500px" height="174.916px" viewBox="0 0 500 174.916" enable-background="new 0 0 500 174.916" xml:space="preserve">
	<path fill="#FFFFFF" d="M248.468,174.916c-1.915-5.667-3.515-11.724-5.962-17.418c-10.153-23.618-27.615-39.536-51.804-48.085
		c-11.679-4.129-23.78-6.415-36.054-7.867c-21.129-2.5-42.311-2.353-63.508-1.186c-2.986,0.165-5.968,0.4-8.951,0.595
		c-0.086,0.005-0.178-0.075,0.08,0.042c0.92-4.648,2.185-9.169,2.661-13.771c1.824-17.65-3.413-32.929-15.986-45.583
		c-4.757-4.788-10.066-8.889-15.708-12.565C43.827,22.944,34.448,16.7,23.913,12.634C16.437,9.75,8.755,7.393,1.165,4.805
		C0.782,4.674,0.385,4.583,0,4.26c0.424-0.027,0.849-0.08,1.273-0.08C57.282,4.175,113.29,4.171,169.299,4.176
		c3.369,0,4.583,1.035,5.345,4.518c1.418,6.479,3.269,12.801,6.479,18.658c1.854,3.382,4.398,5.948,8.068,7.36
		c10.999,4.235,22.266,7.14,34.152,7.044c4.396-0.036,5.725-0.693,6.767-4.998c1.279-5.279,2.216-10.68,2.779-16.083
		c0.701-6.723,0.873-13.502,1.298-20.675c2.359,9.094,4.632,17.849,6.947,26.768c4.857-1.288,9.524-1.309,14.444,0.006
		c2.23-8.885,4.43-17.647,6.63-26.411c0.188,0.008,0.373,0.016,0.559,0.024c0,2.626-0.095,5.258,0.018,7.88
		c0.372,8.653,0.758,17.323,2.88,25.765c2.195,8.733,3.792,7.944,9.991,7.65c10.982-0.521,21.555-3.114,31.846-6.933
		c3.751-1.392,6.338-3.984,8.223-7.408c3.12-5.664,4.902-11.793,6.363-18.042c0.236-1.015,0.521-2.037,0.941-2.985
		c0.577-1.299,1.678-1.979,3.104-2.074c0.68-0.045,1.363-0.066,2.045-0.066C384.765,4.17,441.35,4.171,497.936,4.171
		c0.663,0,1.324,0,1.986,0c0.026,0.125,0.053,0.249,0.078,0.373c-2.499,0.854-4.979,1.769-7.5,2.554
		c-12.588,3.919-24.977,8.346-36.624,14.603c-11.805,6.342-22.892,13.686-31.865,23.808c-8.679,9.789-13.592,21.102-13.37,34.36
		c0.11,6.622,1.561,13,3.891,19.186c0.219,0.58,0.425,1.165,0.706,1.938c-1.384-0.072-2.581-0.111-3.771-0.203
		c-17.551-1.363-35.123-1.661-52.698-0.717c-14.164,0.759-28.203,2.513-42.022,5.878c-17.867,4.353-33.839,12.047-46.55,25.723
		c-10.893,11.723-17.495,25.636-21.188,41.063C248.805,173.587,248.587,174.437,248.468,174.916z"/>
</svg>