<svg version="1.1" xmlns="http://www.w3.org/2000/svg" xmlns:xlink="http://www.w3.org/1999/xlink" x="0px" y="0px"
	 width="500px" height="500px" viewBox="0 0 500 500" enable-background="new 0 0 500 500" xml:space="preserve">
<path fill="#FFFFFF" d="M393.877,251.002c0.416,78.797-63.916,144.1-143.708,144.51c-79.733,0.409-146.28-64.877-145.126-146.901
	c1.103-78.452,65.29-143.59,146.582-142.511C331.366,107.156,394.467,172.806,393.877,251.002z M232.887,0
	c-0.368,0.802-1.114,0.503-1.707,0.548c-8.26,0.615-16.492,1.439-24.673,2.793c-26.455,4.375-51.612,12.682-75.185,25.485
	C82.03,55.599,45.647,94.72,22.436,145.79C4.67,184.879-2.561,226.051,0.8,269.023c1.801,23.027,6.578,45.354,14.566,66.998
	c14.501,39.289,37.411,72.924,68.729,100.541c45.741,40.337,99.41,61.1,160.193,63.291c22.526,0.813,44.778-1.8,66.675-7.186
	c38.428-9.453,72.786-27.005,102.946-52.671c32.051-27.272,55.771-60.581,71.135-99.839c7.337-18.75,12.075-38.17,14.888-58.096
	c0.292-2.072-0.746-1.828-1.996-1.84c-20.763-0.188-41.528-0.337-62.29-0.652c-2.597-0.04-3.485,0.707-3.807,3.248
	c-1.506,11.882-4.368,23.453-8.561,34.672c-17.271,46.217-48.777,79.271-93.107,100.018
	c-32.738,15.322-67.253,20.349-103.136,15.826c-23.184-2.921-44.986-10.141-65.292-21.602
	c-37.621-21.234-65.547-51.555-82.911-91.27c-12.498-28.583-17.441-58.488-13.633-89.63c3.238-26.486,12.574-50.77,27.06-73.041
	c20.343-31.28,47.215-55.27,80.748-71.632c18.413-8.984,37.772-14.69,58.244-16.19c15.266-1.119,30.515-0.587,45.723,1.167
	c27.775,3.204,53.778,11.461,77.103,27.285c23.117,15.683,40.214,36.683,53.273,61.166c10.631,19.931,18.022,41.102,23.354,63.015
	c0.551,2.26,1.476,2.886,3.751,2.827c10.893-0.286,21.787-0.372,32.683-0.53c10.241-0.148,20.482-0.3,30.727-0.443
	c1.237-0.017,2.423,0.213,2.073-1.851c-1.259-7.445-2.418-14.905-4.09-22.273c-5.771-25.453-15.066-49.506-28.125-72.117
	c-14.993-25.961-33.996-48.536-56.941-67.708c-29.605-24.74-63.152-41.915-100.472-51.643c-15.429-4.021-31.093-6.556-46.979-7.861
	c-3.063-0.251-6.233,0.171-9.205-1.002C247.046,0,239.967,0,232.887,0z"/>
</svg>
