<svg version="1.1" xmlns="http://www.w3.org/2000/svg" xmlns:xlink="http://www.w3.org/1999/xlink" x="0px" y="0px"
	 width="500px" height="500px" viewBox="0 0 500 500" enable-background="new 0 0 500 500" xml:space="preserve">
	<path fill="#FFFFFF" d="M140.51,113.527v45.158h53.956c-35.573,18.744-57.786,55.171-57.825,94.827
		c0.023,42.834,25.876,81.584,65.847,98.699h-64.555v41.283h219.325v-41.283h-67.324c40.049-17.061,65.981-55.822,66.039-98.699
		c-0.017-39.627-22.172-76.048-57.691-94.827h60.271v-45.158H140.51z M245.016,187.068c34.916,0,63.218,28.304,63.218,63.218l0,0
		c0,34.916-28.305,63.219-63.218,63.219c-34.914,0-63.219-28.303-63.22-63.219C181.798,215.372,210.102,187.068,245.016,187.068
		L245.016,187.068z"/>
	<path fill="#FFFFFF" d="M249-0.001C110.93-0.001-1,111.927-1,250c0,0,0,0,0,0.002c0,138.07,111.93,249.999,250,249.999
		s250-111.929,250-249.999C499,111.933,387.073-0.001,249.002-0.001C249.001-0.001,249.001-0.001,249-0.001z M249,53.374
		c108.596,0,196.629,88.032,196.629,196.629l0,0c0,108.595-88.033,196.63-196.629,196.63S52.371,358.598,52.371,250.003
		C52.371,141.406,140.404,53.374,249,53.374L249,53.374z"/>
</svg>
