<?xml version="1.0" encoding="utf-8"?>
<!-- Generator: Adobe Illustrator 23.0.3, SVG Export Plug-In . SVG Version: 6.00 Build 0)  -->
<svg version="1.1"
	 id="Layer_1" xmlns:cc="http://creativecommons.org/ns#" xmlns:dc="http://purl.org/dc/elements/1.1/" xmlns:inkscape="http://www.inkscape.org/namespaces/inkscape" xmlns:rdf="http://www.w3.org/1999/02/22-rdf-syntax-ns#" xmlns:sodipodi="http://sodipodi.sourceforge.net/DTD/sodipodi-0.dtd" xmlns:svg="http://www.w3.org/2000/svg"
	 xmlns="http://www.w3.org/2000/svg" xmlns:xlink="http://www.w3.org/1999/xlink" x="0px" y="0px" viewBox="0 0 1000 931.8"
	 style="enable-background:new 0 0 1000 931.8;" xml:space="preserve">
<style type="text/css">
	.st0{fill:#555555;}
	.st1{fill:#3F3F3F;}
	.st2{fill:url(#SVGID_1_);}
	.st3{fill:#FFFFFF;}
	.st4{fill:url(#SVGID_2_);}
	.st5{fill:url(#SVGID_3_);}
	.st6{fill:#686868;}
	.st7{fill:#FFFFFF;stroke:#414141;stroke-width:3.4659;}
	.st8{fill:url(#SVGID_4_);}
</style>
<path class="st0" d="M716.3,164.6c-51.9,0-158.8,10.4-188.5,103.9c-29.7,93.5-86,304-93.5,340c-17.8,84.6,40.1,106.9,77.2,106.9
	c36.9,0,57.6,1.5,78.3,1.5c20.8,0,155.9,10.4,198.9-142.5c40.1-145.5,110.2-409.7,110.2-409.7S768.3,164.6,716.3,164.6z"/>
<path class="st1" d="M722.6,295.5L722.6,295.5c-3.5,11.3-13.4,49.1-25.2,94.7h125.7c26.2-99.9,51.4-198.4,51.4-198.4
	s-114.6,0.4-160.1,0c-66.8-0.5-147,36.6-169.2,109.3c-26,85.1-71.9,261.6-78.1,294.3c-19.5,102.1,35.1,97.2,67.7,97.2
	c27.8,0,56.8,0.4,115.8,0.4c31.2,0,98-40.1,118.8-105.4c6.4-20.1,20.2-70.7,35.7-129.2H679.6c-17.9,68-35.9,134-42.8,147
	c-14.2,26.9-36.5,35.2-74.2,33.7c15.7-6,18.4-16.9,27.9-45.2c9.4-28.4,56.6-208.9,73.9-273.1c17.3-64.2,53.5-79.1,89.7-76.1
	C733.6,256.7,727.3,280.5,722.6,295.5z"/>
<path class="st0" d="M466.6,166.1c-54.9,0-242-1.5-242-1.5L79.1,716.8c0,0,130.6,0,182.6,0c52,0,158.9-10.4,188.6-103.9
	c29.7-93.5,86-304,93.5-339.9C561.6,188.3,503.7,166.1,466.6,166.1z"/>
<linearGradient id="SVGID_1_" gradientUnits="userSpaceOnUse" x1="277.0351" y1="669.1371" x2="509.616" y2="668.4944" gradientTransform="matrix(3.4659 0 0 -3.4659 -524.5262 3060.6526)">
	<stop  offset="5.600000e-03" style="stop-color:#FFFFFF"/>
	<stop  offset="1" style="stop-color:#A0A0A0"/>
</linearGradient>
<path class="st2" d="M439.8,647c-1.3-1-2.7-2-4-3c-14.9,23.6-36,39.6-59,50.5c0.7,0.5,1.5,1.1,2.1,1.5
	c19.3,13.4,383,270.2,525.6,63.8C767.9,884.6,543.8,724.2,439.8,647z"/>
<path class="st1" d="M455.1,193.2c-48.2,0-208.2-0.4-208.2-0.4L115.3,694c0,0,114.6,0,160.1,0c45.6,0,139.3-9.5,165.3-94.5
	c26-85,75.8-276.4,82-309.2C542.3,188.3,487.6,193.2,455.1,193.2z M398.9,295.5L398.9,295.5c-8.1,32.8-71.6,283.1-85.8,310
	c-14.2,26.9-36.5,35.2-74.2,33.7c15.7-6,18.4-16.9,27.8-45.2c9.5-28.4,56.6-208.9,73.9-273.1c17.3-64.2,17-57.8,3.1-72.6
	C395.3,245.2,411.1,246.2,398.9,295.5z"/>
<path class="st3" d="M713.7,288L713.7,288c-3.5,11.3-13.4,49.1-25.2,94.8h125.7c26.2-99.9,51.4-198.4,51.4-198.4s-114.5,0.4-160.1,0
	c-66.8-0.5-146.9,36.6-169.2,109.3c-26,85.1-70.9,261.8-78.1,294.3c-3.7,16.8-9.9,35.6-11.3,49.8c-3.1,32.4,56.9,47.4,78.9,47.4
	c27.8,0,56.8,0.4,115.8,0.4c31.2,0,98-40.1,118.8-105.4c6.4-20.1,20.2-70.6,35.7-129.2H670.7c-17.9,68-35.9,134-42.8,147
	c-14.2,26.9-36.5,35.1-74.2,33.6c15.7-6,18.4-16.9,27.9-45.2c9.4-28.4,56.6-208.9,73.9-273c17.3-64.2,53.5-79.1,89.7-76.1
	C724.7,249.3,718.4,273.1,713.7,288z"/>
<path class="st3" d="M446.2,185.8c-48.2,0-208.2-0.4-208.2-0.4L106.4,686.6c0,0,114.6,0,160.1,0c45.6,0,139.3-9.5,165.3-94.5
	c26-85,75.8-276.4,82-309.1C533.4,180.9,478.7,185.8,446.2,185.8z M390,288c-8.1,32.8-71.6,283.2-85.8,310
	c-14.2,26.9-36.5,35.1-74.2,33.6c15.7-6,18.4-16.9,27.8-45.2c9.5-28.4,56.6-208.9,73.9-273c17.3-64.2,17-57.8,3.1-72.6
	C386.4,237.8,402.2,238.8,390,288L390,288z"/>
<g>
	
		<linearGradient id="SVGID_2_" gradientUnits="userSpaceOnUse" x1="141.3218" y1="732.1797" x2="340.494" y2="944.8442" gradientTransform="matrix(3.4659 0 0 -3.4659 -524.5262 3060.6526)">
		<stop  offset="0.3764" style="stop-color:#4B4B4B"/>
		<stop  offset="0.7921" style="stop-color:#414141"/>
	</linearGradient>
	<path class="st4" d="M93.9,100.7c-0.2,1.3-0.3,2.5-0.4,3.8c0,0,0,0.1,0,0.1c-0.1,1.2-0.2,2.4-0.4,3.6c0,0.4,0,0.7-0.1,1
		c-0.1,0.9-0.2,1.8-0.2,2.7c0,0.4,0,0.8-0.1,1.2c0,0.9-0.1,1.7-0.1,2.6c0,0.5,0,1,0,1.5c0,0.8-0.1,1.5-0.1,2.3c0,0.5,0,1,0,1.5
		c0,0.7,0,1.5,0,2.2c0,0.5,0,1,0,1.6c0,0.7,0,1.5,0,2.2c0,0.5,0,1.1,0,1.6c0,0.7,0,1.4,0.1,2.1c0,0.6,0.1,1.2,0.1,1.8
		c0,0.6,0.1,1.3,0.1,1.9c0,0.6,0.1,1.2,0.1,1.7c0,0.7,0.1,1.3,0.2,2c0,0.6,0.1,1.2,0.1,1.8c0.1,0.7,0.1,1.3,0.2,1.9
		c0.1,0.6,0.1,1.2,0.2,1.9c0.1,0.6,0.1,1.3,0.2,1.9c0.1,0.6,0.1,1.3,0.2,1.9c0.1,0.6,0.2,1.2,0.2,1.8c0.1,0.6,0.2,1.3,0.3,1.9
		c0.1,0.6,0.2,1.2,0.3,1.8c0.1,0.6,0.2,1.3,0.3,1.9c0.1,0.6,0.2,1.2,0.3,1.9c0.1,0.6,0.2,1.3,0.3,1.9c0.1,0.6,0.2,1.2,0.3,1.8
		c0.1,0.6,0.2,1.2,0.4,1.8c0.1,0.6,0.2,1.3,0.4,1.9c0.1,0.6,0.3,1.2,0.4,1.8c0.1,0.6,0.3,1.3,0.4,1.9c0.2,0.6,0.3,1.2,0.4,1.9
		c0.1,0.6,0.3,1.2,0.4,1.9c0.2,0.7,0.3,1.3,0.5,2c0.2,0.6,0.3,1.1,0.4,1.7c0.2,0.7,0.4,1.3,0.5,2c0.1,0.6,0.3,1.2,0.5,1.7
		c0.2,0.7,0.4,1.3,0.5,2c0.2,0.6,0.3,1.1,0.5,1.7c0.2,0.7,0.4,1.3,0.6,2c0.2,0.6,0.3,1.1,0.5,1.7c0.2,0.7,0.4,1.3,0.6,2
		c0.2,0.6,0.3,1.1,0.5,1.7c0.2,0.7,0.5,1.3,0.7,2c0.2,0.5,0.4,1.1,0.5,1.6c0.2,0.7,0.4,1.3,0.7,2c0.2,0.6,0.4,1.1,0.6,1.7
		c0.2,0.7,0.5,1.3,0.7,2c0.2,0.5,0.4,1.1,0.6,1.6c0.2,0.7,0.5,1.4,0.8,2.1c0.2,0.5,0.4,1,0.6,1.6c0.3,0.7,0.6,1.4,0.8,2.1
		c0.2,0.5,0.4,1,0.6,1.5c0.3,0.7,0.6,1.4,0.9,2.2c0.2,0.5,0.4,1,0.6,1.5c0.3,0.7,0.6,1.4,0.9,2.2c0.2,0.5,0.4,1,0.6,1.4
		c0.3,0.7,0.6,1.5,0.9,2.2c0.2,0.5,0.4,1,0.6,1.4c0.3,0.7,0.6,1.4,1,2.1c0.2,0.5,0.4,1,0.7,1.5c0.3,0.7,0.7,1.4,1,2.1
		c0.2,0.5,0.4,1,0.7,1.4c0.3,0.7,0.7,1.5,1,2.2c0.2,0.5,0.4,0.9,0.7,1.4c0.4,0.7,0.7,1.5,1.1,2.2c0.2,0.4,0.4,0.9,0.6,1.3
		c0.4,0.8,0.7,1.5,1.1,2.3c0.2,0.4,0.4,0.9,0.6,1.3c0.4,0.8,0.7,1.5,1.1,2.2c0.2,0.5,0.4,0.9,0.7,1.3c0.4,0.8,0.8,1.5,1.2,2.3
		c0.2,0.4,0.4,0.9,0.7,1.3c0.4,0.8,0.8,1.6,1.2,2.4c0.2,0.4,0.4,0.8,0.6,1.2c0.4,0.8,0.9,1.6,1.3,2.4c0.2,0.4,0.4,0.8,0.6,1.1
		c0.4,0.8,0.9,1.6,1.3,2.4c0.2,0.4,0.4,0.8,0.6,1.2c0.4,0.8,0.9,1.6,1.3,2.4c0.2,0.4,0.4,0.7,0.6,1.1c0.5,0.8,0.9,1.6,1.4,2.5
		c0.2,0.3,0.4,0.7,0.6,1c0.5,0.8,1,1.7,1.5,2.5c0.2,0.3,0.4,0.7,0.6,1c0.5,0.8,1,1.7,1.5,2.5c0.2,0.3,0.4,0.7,0.6,1
		c0.5,0.8,1,1.7,1.5,2.5c0.2,0.3,0.4,0.6,0.6,0.9c0.5,0.8,1,1.7,1.6,2.5c0.2,0.3,0.4,0.6,0.5,0.9c0.5,0.8,1,1.7,1.5,2.5
		c0.2,0.3,0.4,0.6,0.6,1c0.5,0.8,1.1,1.7,1.6,2.5c0.2,0.3,0.4,0.6,0.5,0.9c0.6,0.9,1.1,1.8,1.7,2.6c0.1,0.3,0.3,0.5,0.5,0.8
		c0.6,0.9,1.2,1.8,1.8,2.7c0.1,0.2,0.3,0.4,0.4,0.6c0.6,0.9,1.2,1.8,1.8,2.7c0.1,0.2,0.3,0.4,0.4,0.7c0.6,0.9,1.2,1.9,1.9,2.8
		c0.1,0.2,0.3,0.4,0.4,0.6c0.6,0.9,1.3,1.9,1.9,2.8c0.1,0.2,0.2,0.4,0.4,0.6c0.7,0.9,1.3,1.9,2,2.9c0.1,0.2,0.2,0.3,0.3,0.4
		c0.7,1,1.3,2,2,3c0.1,0.1,0.2,0.2,0.3,0.4c0.7,1,1.4,2,2.1,3c0.1,0.1,0.1,0.2,0.2,0.3c0.7,1,1.5,2.1,2.2,3.1c0,0.1,0.1,0.1,0.1,0.2
		c0.7,1,1.5,2.1,2.2,3.1c0,0.1,0.1,0.1,0.1,0.1c3.1,4.4,6.2,8.7,9.4,12.9l7.4-28c-34-83.9-38.1-159.9,15.2-198.7
		c9.7-7.1,124.7-75.7,381.5,87.6c1.5,1,3,2,4.5,2.9c12.4-7.1,25.6-12.4,38.8-16.4C417.5-0.4,174.5-54,60.2,60.2
		C-42.7,163.1-9.4,370.4,127.3,564.8l0.8-2.3c0,0-4.4-28.2,8.9-31.2c31.9-7.1,56.8,1.7,83,19.7c-2.9-3.1-5.8-6.2-8.7-9.4
		C9.4,323.4,21.2,170.5,93.9,100.7z"/>
	
		<linearGradient id="SVGID_3_" gradientUnits="userSpaceOnUse" x1="272.6417" y1="609.1912" x2="471.8139" y2="821.8557" gradientTransform="matrix(3.4659 0 0 -3.4659 -524.5262 3060.6526)">
		<stop  offset="0.3764" style="stop-color:#4B4B4B"/>
		<stop  offset="0.7921" style="stop-color:#414141"/>
	</linearGradient>
	<path class="st5" d="M833.2,410.4L833.2,410.4c-2.9,10.7-5.8,21.4-8.7,32.1c55.1,108.3,57.2,206.6,26.5,250.6
		c-37.8,54.1-131.3,63.5-243.4,23.9c-1,0-2,0-2.9,0c-37.4-14.5-105.5-44-162.4-84.8c-2,4.1-4.3,8.1-6.6,11.8c1.3,1,2.7,2,4,3
		c38.5,28.6,93.3,68.5,154.2,101.2c1.5,0.8,3,1.6,4.4,2.4c0.1,0.1,0.3,0.2,0.5,0.3c4.7,2.5,9.5,5,14.3,7.3c0.2,0.1,0.4,0.2,0.6,0.3
		c1.4,0.7,2.8,1.4,4.2,2.1c0.3,0.1,0.5,0.2,0.7,0.4c1.6,0.8,3.1,1.5,4.7,2.2c0,0,0,0,0,0c1.6,0.8,3.3,1.6,5,2.4c0,0,0,0,0,0
		c1.6,0.7,3.1,1.4,4.6,2.1c0.3,0.1,0.6,0.3,0.9,0.4c1.3,0.6,2.6,1.2,4,1.8c0.3,0.1,0.6,0.3,0.9,0.4c3.2,1.4,6.4,2.8,9.6,4.2
		c0.2,0.1,0.4,0.2,0.6,0.2c1.4,0.6,2.7,1.2,4.1,1.7c0.4,0.2,0.7,0.3,1.1,0.4c1.2,0.5,2.5,1,3.8,1.6c0.4,0.1,0.7,0.3,1,0.4
		c3.2,1.3,6.4,2.5,9.6,3.7c0.3,0.1,0.6,0.2,0.9,0.4c1.3,0.5,2.5,1,3.8,1.4c0.4,0.2,0.8,0.3,1.3,0.4c1.2,0.5,2.5,0.9,3.7,1.3
		c0.4,0.1,0.8,0.3,1.1,0.4c3.2,1.1,6.3,2.1,9.5,3.2c0.4,0.1,0.8,0.2,1.2,0.4c1.2,0.4,2.4,0.8,3.5,1.1c0.5,0.2,1,0.3,1.4,0.5
		c1.2,0.3,2.4,0.7,3.6,1.1c0.4,0.1,0.8,0.2,1.2,0.4c1.6,0.4,3.2,0.9,4.8,1.4c0.1,0,0.2,0.1,0.3,0.1c1.5,0.4,3,0.8,4.4,1.2
		c0.5,0.1,0.9,0.3,1.4,0.4c1.1,0.3,2.2,0.6,3.4,0.9c0.5,0.1,1,0.2,1.5,0.4c1.2,0.3,2.3,0.6,3.5,0.9c0.4,0.1,0.8,0.2,1.2,0.3
		c1.6,0.4,3.1,0.7,4.7,1.1c0.3,0.1,0.5,0.1,0.8,0.2c1.3,0.3,2.6,0.5,3.9,0.8c0.5,0.1,1,0.2,1.5,0.3c1.1,0.2,2.2,0.4,3.3,0.6
		c0.5,0.1,1,0.2,1.5,0.3c1.2,0.2,2.4,0.4,3.6,0.6c0.4,0,0.7,0.1,1.1,0.2c1.5,0.3,3.1,0.5,4.6,0.7c0.4,0.1,0.7,0.1,1.1,0.2
		c1.2,0.1,2.3,0.3,3.5,0.5c0.5,0.1,1.1,0.2,1.6,0.2c1,0.2,2.1,0.3,3.2,0.4c0.5,0.1,1,0.1,1.6,0.2c1.2,0.1,2.5,0.2,3.7,0.4
		c0.3,0,0.6,0.1,0.9,0.1c1.5,0.1,3,0.2,4.6,0.4c0.4,0,0.9,0.1,1.3,0.1c1.1,0.1,2.2,0.2,3.3,0.2c0.5,0,1.1,0.1,1.6,0.1
		c1,0,2.1,0.1,3.1,0.1c0.5,0,1,0,1.6,0c1.3,0,2.5,0.1,3.8,0.1c0.2,0,0.5,0,0.7,0c1.5,0,3,0,4.5,0c0.5,0,0.9,0,1.4,0
		c1.1,0,2.1-0.1,3.1-0.1c0.6,0,1.1,0,1.6-0.1c1,0,2.1-0.1,3.1-0.2c0.5,0,1-0.1,1.5-0.1c1.4-0.1,2.8-0.2,4.3-0.3c0.1,0,0.2,0,0.4,0
		c1.4-0.1,2.8-0.3,4.2-0.4c0.5-0.1,1-0.1,1.5-0.2c1-0.1,2-0.3,3-0.4c0.5-0.1,1.1-0.2,1.6-0.2c1-0.2,2-0.3,3-0.5
		c0.5-0.1,1-0.1,1.4-0.2c1.5-0.2,2.9-0.5,4.3-0.8c0.2,0,0.4-0.1,0.7-0.2c1.2-0.2,2.5-0.5,3.7-0.7c0.5-0.1,1-0.2,1.5-0.3
		c1-0.2,2-0.4,2.9-0.7c0.5-0.1,1-0.2,1.6-0.4c1-0.3,2-0.5,3-0.8c0.4-0.1,0.8-0.2,1.3-0.3c1.4-0.4,2.8-0.8,4.2-1.3
		c0.3-0.1,0.6-0.2,0.9-0.3c1.1-0.4,2.2-0.7,3.3-1.1c0.5-0.2,1-0.3,1.5-0.5c0.9-0.3,1.9-0.7,2.8-1c0.5-0.2,1-0.4,1.5-0.5
		c1-0.4,2.1-0.8,3.1-1.2c0.4-0.1,0.7-0.3,1.1-0.4c1.4-0.6,2.7-1.1,4.1-1.7c0.3-0.2,0.7-0.3,1.1-0.5c1-0.5,2.1-0.9,3.1-1.4
		c0.5-0.2,1-0.5,1.4-0.7c0.9-0.4,1.8-0.9,2.7-1.4c0.5-0.3,0.9-0.5,1.4-0.7c1-0.5,2.1-1.1,3.2-1.7c0.3-0.2,0.6-0.3,0.9-0.5
		c1.4-0.7,2.7-1.5,4-2.3c0.4-0.2,0.7-0.4,1.1-0.7c0.9-0.6,1.9-1.2,2.9-1.8c0.4-0.3,0.9-0.6,1.4-0.9c0.9-0.6,1.8-1.2,2.7-1.8
		c0.4-0.3,0.9-0.6,1.3-0.9c1.1-0.8,2.2-1.6,3.4-2.4c0.2-0.1,0.3-0.2,0.5-0.3c1.3-0.9,2.5-1.9,3.8-2.8c0.4-0.3,0.8-0.6,1.1-0.9
		c0.9-0.7,1.8-1.4,2.7-2.1c0.4-0.4,0.9-0.7,1.3-1.1c0.9-0.7,1.8-1.4,2.6-2.2c0.4-0.3,0.8-0.7,1.2-1c1.2-1.1,2.5-2.1,3.7-3.3
		C762,966.2,398.3,709.4,378.9,696c-0.5-0.4-1.1-0.8-1.7-1.2c-0.1-0.1-0.2-0.2-0.4-0.2v0c-40.2,19-86.2,22.3-115.2,22.3
		c-0.7,0-1.3,0-2,0c220.2,207.1,489.7,276.9,611.9,154.7C966.8,776.3,945.4,591.6,833.2,410.4z"/>
</g>
<path class="st6" d="M1000,690.1c0,0-44.2-41.8-52.9-48c-14.8-101.5-49-134.1-49-134.1c-5.5,86.6-5.9,85.5-7.6,94.2
	c-68.1-35.3-108.7-30-108.7-30s75.6,107.2,80.8,113.4c-11,35.6-69.3,94.5-69.3,94.5c27.7,5,54.4,13.4,115.9-20.9
	c16.9,24.9,31.1,52.1,52.3,91.7c0,0,1.7-116,1-124.7C976.2,716.6,1000,690.1,1000,690.1z"/>
<path class="st7" d="M986.2,688.6c-16.3-16.3-34.9-29.9-43.9-35.9c-4.4-32.7-14.1-73.4-30.4-96.3c-1.5,31.2-7.4,57.9-10.4,68.3
	c-45.6-24.7-63.6-29.1-82-31.8c26.7,31.2,55.2,73.4,65.6,83.8c-8.9,41.6-51.4,84.9-58.8,90.9c37.1,8.9,75.2-19.6,87-28.5
	c17.9,22.8,28.4,45.3,38.9,68.4c3-35.6,3.1-66.6,0.5-88.6C976.5,704,978.7,696,986.2,688.6z"/>
<linearGradient id="SVGID_4_" gradientUnits="userSpaceOnUse" x1="142.4439" y1="870.0007" x2="195.1242" y2="786.3818" gradientTransform="matrix(3.4659 0 0 -3.4659 -524.5262 3060.6526)">
	<stop  offset="5.600000e-03" style="stop-color:#8F8F8E;stop-opacity:0.9922"/>
	<stop  offset="1" style="stop-color:#FFFFFF"/>
</linearGradient>
<path class="st8" d="M145.8,463.5L145.8,463.5L145.8,463.5c11.2,14.5,31.9,40.1,65.4,78.1c-8.7-18.9-36.2-83.6-52.1-128.5l22.1-84.1
	c-50.4-68.2-97.7-148.2-87.3-228.3C32,160.2,14.3,279.8,135,448.9l0,0.1c0,0,2.7,3.8,8.7,11.7C144.4,461.7,145.1,462.6,145.8,463.5
	L145.8,463.5L145.8,463.5z"/>
</svg>
