<svg version="1.1" xmlns="http://www.w3.org/2000/svg" xmlns:xlink="http://www.w3.org/1999/xlink" x="0px" y="0px"
	width="500px" height="372.744px" viewBox="0 0 500 372.744" enable-background="new 0 0 500 372.744" xml:space="preserve">
	<path fill="#FFFFFF" d="M345.895,111.963C296.6,96.724,203.453,120.93,149.648,83.298c0,0-31.36-20.63,29.545-51.057
		c0,0,15.084-6.532,37.271-9.331c11.299-1.399,24.518-1.866,38.514,0c13.424,1.763,27.575,5.65,41.572,12.907
		c0,0,33.121,18.816,38.512,51.99h77.079l3.629-56.034l52.871,53.442l-65.261,75.472
		C397.108,147.521,381.091,122.901,345.895,111.963L345.895,111.963z M327.959,223.098c-17.001,4.509-43.904,9.848-83.352,6.271
		c0,0-3.575-23.273-51.057-23.273c-27.576,0-39.706,7.827-45.097,14.41l-49.657-57.331c12.544,6.014,34.417,12.026,72.361,13.323
		c80.655,2.695,141.562,7.153,162.19,16.121C353.929,201.586,344.961,218.588,327.959,223.098L327.959,223.098z M250,337.703
		l-64.328-74.229c24.518,6.17,70.132,12.959,128.292,0.364L250,337.703z M31.308,85.268l61.633-62.305h39.964
		c-64.43,31.256-65.363,83.662-61.632,108.438L31.308,85.268z M363.778,17.935l-3.267,5.028L348.59,41.208l-18.246-18.245
		l-5.028-5.028H363.778z M416.65,0H83.351L0,84.232l250,288.512L500,84.232L416.65,0"/>
</svg>
