<svg version="1.1" xmlns="http://www.w3.org/2000/svg" xmlns:xlink="http://www.w3.org/1999/xlink" x="0px" y="0px"
	 width="500px" height="211.283px" viewBox="0 0 500 211.283" enable-background="new 0 0 500 211.283" xml:space="preserve">
	<path fill="#FFFFFF" d="M355.355,70.253c0,0-22.552-1.461-36.706,25.12
		l-29.386,53.682l-39.26-71.516l-39.265,71.516l-29.385-53.682c-14.152-26.582-36.704-25.12-36.704-25.12H62.468
		c0,0,6.525,13.532,12.949,20.251c6.539,6.837,13.074,7.004,13.074,7.004h45.264c0,0,15.031,0,23.22,15.61l36.698,67.038
		l17.038,31.125l17.072-31.104l22.223-40.481l22.219,40.481l17.072,31.104l17.039-31.125l36.696-67.038
		c8.189-15.61,23.221-15.61,23.221-15.61h45.267c0,0,6.53-0.167,13.071-7.004c6.425-6.721,12.947-20.252,12.947-20.252H355.355"/>
	<path fill="#FFFFFF" d="M147.947,62.623H56.427c0,0-6.539-0.163-13.074-7
		c-6.424-6.72-12.949-20.254-12.949-20.254h106.858c0,0,13.193,0.324,19.038,12.006c5.847,11.684,11.523,21.742,11.523,21.742
		S159.143,62.623,147.947,62.623"/>
	<path fill="#FFFFFF" d="M352.055,62.623h91.527c0,0,6.534-0.163,13.068-7
		c6.427-6.72,12.95-20.254,12.95-20.254H362.744c0,0-13.193,0.324-19.039,12.006c-5.846,11.684-11.523,21.742-11.523,21.742
		S340.864,62.623,352.055,62.623"/>
	<path fill="#FFFFFF" d="M351.004,0.015c0,0-22.549-1.459-36.703,25.125
		l-25.279,46.017L250.004,0.078l-39.021,71.078l-25.277-46.017C171.549-1.444,148.999,0.014,148.999,0.014H0
		c0,0,6.523,13.536,12.95,20.257c6.535,6.841,13.07,7.002,13.07,7.002h112.08c0,0,15.035,0,23.222,15.611l32.602,59.344l17.069,31.07
		l17.057-31.078l21.952-39.985l21.948,39.985l17.061,31.078l17.067-31.07l32.598-59.344c8.188-15.611,23.226-15.611,23.226-15.611
		h112.082c0,0,6.533-0.161,13.07-7.002C493.479,13.55,500,0.014,500,0.014L351.004,0.015"/>
</svg>