<svg version="1.1" xmlns="http://www.w3.org/2000/svg" xmlns:xlink="http://www.w3.org/1999/xlink" x="0px" y="0px"
	 width="500px" height="581.184px" viewBox="0 0 500 581.184" enable-background="new 0 0 500 581.184" xml:space="preserve">
	<path fill="#FFFFFF" d="M255.725,317.242c-62.763-0.074-111.731,42.856-119.42,99.426c-3.099,22.804,0.357,44.605,9.874,65.395
	c13.895,30.352,29.165,60.003,46.521,88.55c0.667,1.092,1.216,2.313,1.533,3.548c0.573,2.216,0.01,4.3-1.684,5.829
	c-1.653,1.495-3.657,1.374-5.684,0.66c-2.077-0.734-3.601-2.257-5.243-3.585c-44.165-35.728-87.06-72.924-128.818-111.434
	c-17.222-15.882-34.224-31.993-51.036-48.309c-1.995-1.937-2.142-3.21-0.781-5.629C68.003,292.579,138.471,175.53,211.319,59.906
	c12.108-19.218,24.411-38.313,36.636-57.456c2.088-3.27,2.141-3.264,4.241,0.004c53.311,82.892,105.108,166.72,155.509,251.414
	c31.097,52.257,61.633,104.837,91.438,157.841c1.194,2.123,1.506,3.412-0.51,5.375c-58.043,56.472-118.52,110.192-181.518,161.079
	c-4.094,3.307-7.201,3.862-9.555,1.85c-2.438-2.084-2.335-5.759,0.251-10.022c17.262-28.461,32.531-57.984,46.316-88.255
	c20.926-45.947,11.369-97.321-24.684-132.319C307.378,327.993,280.557,317.706,255.725,317.242z"/>
</svg>
