<svg version="1.1" xmlns="http://www.w3.org/2000/svg" xmlns:xlink="http://www.w3.org/1999/xlink" x="0px" y="0px"
	 width="500px" height="500px" viewBox="0 0 500 500" enable-background="new 0 0 500 500" xml:space="preserve">
	<path fill="#FFFFFF" d="M0.001,258.083c0-5.375,0-10.752,0-16.127c0.146-1.76,0.293-3.568,0.487-5.328
		c0.537-6.305,0.88-12.656,1.711-18.962c3.469-27.318,11.53-53.172,23.646-77.901c19.593-40.026,47.931-72.281,84.771-97.06
		c35.96-24.191,75.535-38.414,118.872-41.834c20.472-1.612,40.846-1.075,61.073,2.346c42.898,7.232,81.398,24.435,115.258,51.657
		c36.791,29.47,63.566,66.271,79.348,110.744c15,42.274,18.859,85.576,10.504,129.706c-10.992,57.914-38.939,106.297-83.646,144.709
		c-39.574,34.017-85.697,53.175-137.586,58.552c-5.033,0.537-10.016,0.928-15.049,1.416c-6.986,0-14.021,0-21.007,0
		c-0.636-0.146-1.222-0.343-1.857-0.343c-37.181-2.004-72.114-11.924-104.801-29.666c-40.406-21.942-72.701-52.584-96.349-92.172
		C15.245,344.194,3.91,307.786,0.881,268.738C0.587,265.169,0.294,261.65,0.001,258.083z M397.268,108.291
		c-15.096-16.03-32.197-28.786-51.301-38.804c-49.494-26-101.333-31.328-154.784-15.347c-54.331,16.226-94.735,50.29-121.707,100.09
		c-15.731,29.03-23.5,60.26-24.331,93.345C51.546,246.501,375.574,118.212,397.268,108.291z M396.975,391.603
		c-117.357-46.576-234.032-93.836-351.585-139.774c0.879,74.187,43.289,152.234,125.713,186.739
		C254.846,473.608,345.625,447.706,396.975,391.603z M399.516,111.321c-0.83,1.662-1.318,2.59-1.809,3.519
		c-2.59,5.327-5.18,10.703-7.768,16.03c-18.957,38.854-37.916,77.658-56.92,116.462c-0.93,1.857-0.979,3.323-0.051,5.23
		c17.199,35.236,34.348,70.521,51.449,105.807c4.641,9.58,9.039,19.306,13.68,28.884c0.293,0.588,1.711,1.125,2.395,0.93
		c0.83-0.194,1.467-1.174,2.102-1.905c12.604-14.419,23.109-30.253,31.416-47.505c10.846-22.577,17.59-46.379,19.787-71.354
		c2.053-23.605-0.195-46.818-6.303-69.691c-8.063-30.301-21.742-57.621-43.094-80.834
		C402.838,115.133,401.323,113.373,399.516,111.321z M357.106,148.121c-0.145-0.146-0.293-0.342-0.438-0.489
		c-85.309,33.966-170.614,67.932-255.92,101.898c0,0.342,0,0.686,0,1.025c85.258,33.871,170.565,67.688,256.262,101.705
		c-0.342-0.931-0.393-1.271-0.537-1.563c-16.123-32.892-32.246-65.781-48.322-98.722c-0.73-1.516-1.66-1.859-3.225-1.908
		c-21.496-0.047-42.994-0.146-64.493-0.195c-8.354-0.049-16.709,0-25.113,0c-0.049,0.244-0.049,0.439-0.098,0.684
		c0.635,0.195,1.319,0.49,1.955,0.638c6.693,1.661,13.436,3.321,20.179,4.936c17.296,4.057,34.542,8.064,51.839,11.975
		c2.932,0.684,4.689,1.955,6.01,4.839c4.203,9.188,8.844,18.182,13.24,27.221c1.809,3.666,3.422,7.43,5.18,11.143
		c-0.195,0.246-0.391,0.539-0.635,0.783c-51.547-20.525-103.141-41.053-154.687-61.58c0.049-0.342,0.098-0.684,0.098-1.025
		c51.985-20.77,104.019-41.59,156.494-62.556c-1.563,14.515-3.027,28.394-4.545,42.519c2.199,0,3.908,0.146,5.57-0.049
		c0.832-0.098,2.004-0.734,2.346-1.467c12.02-24.387,23.939-48.823,35.861-73.258C355.201,152.52,356.129,150.321,357.106,148.121z"
		/>
</svg>
